<svg viewBox="0 0 600 500" xmlns="http://www.w3.org/2000/svg" fill="none">
  <defs>
    <radialGradient id="glow1" cx="50%" cy="50%" r="50%">
      <stop offset="0%" stop-color="#6366f1" stop-opacity="0.3"/>
      <stop offset="100%" stop-color="#6366f1" stop-opacity="0"/>
    </radialGradient>
    <radialGradient id="glow2" cx="50%" cy="50%" r="50%">
      <stop offset="0%" stop-color="#f59e0b" stop-opacity="0.2"/>
      <stop offset="100%" stop-color="#f59e0b" stop-opacity="0"/>
    </radialGradient>
  </defs>
  <ellipse cx="300" cy="250" rx="280" ry="220" fill="url(#glow1)"/>
  <ellipse cx="420" cy="150" rx="160" ry="120" fill="url(#glow2)"/>
  <rect x="100" y="280" width="400" height="20" rx="8" fill="#1e1b4b"/>
  <rect x="80" y="295" width="440" height="10" rx="5" fill="#312e81"/>
  <rect x="130" y="100" width="340" height="185" rx="12" fill="#0f0e1a"/>
  <rect x="140" y="110" width="320" height="165" rx="8" fill="#1a1730"/>
  <rect x="150" y="120" width="80" height="8" rx="4" fill="#6366f1" opacity="0.8"/>
  <rect x="150" y="136" width="120" height="6" rx="3" fill="#f59e0b" opacity="0.7"/>
  <rect x="150" y="150" width="200" height="6" rx="3" fill="#64748b" opacity="0.6"/>
  <rect x="150" y="164" width="160" height="6" rx="3" fill="#64748b" opacity="0.5"/>
  <rect x="165" y="178" width="140" height="6" rx="3" fill="#22d3ee" opacity="0.6"/>
  <rect x="165" y="192" width="100" height="6" rx="3" fill="#a78bfa" opacity="0.7"/>
  <rect x="150" y="206" width="180" height="6" rx="3" fill="#64748b" opacity="0.5"/>
  <rect x="150" y="220" width="120" height="6" rx="3" fill="#f59e0b" opacity="0.6"/>
  <rect x="165" y="234" width="80" height="6" rx="3" fill="#22d3ee" opacity="0.5"/>
  <rect x="150" y="248" width="150" height="6" rx="3" fill="#64748b" opacity="0.4"/>
  <circle cx="300" cy="193" r="28" fill="#6366f1" opacity="0.9"/>
  <polygon points="294,183 294,203 314,193" fill="white"/>
  <rect x="30" y="180" width="120" height="70" rx="12" fill="#1e1b4b" stroke="#6366f1" stroke-width="1.5"/>
  <text x="45" y="202" font-family="monospace" font-size="10" fill="#a78bfa">Progress</text>
  <rect x="45" y="210" width="70" height="6" rx="3" fill="#312e81"/>
  <rect x="45" y="210" width="49" height="6" rx="3" fill="#6366f1"/>
  <text x="45" y="232" font-family="monospace" font-size="9" fill="#64748b">70% Complete</text>
  <rect x="440" y="160" width="130" height="65" rx="12" fill="#1e1b4b" stroke="#f59e0b" stroke-width="1.5"/>
  <text x="455" y="182" font-family="monospace" font-size="9" fill="#fbbf24">Live Students</text>
  <text x="455" y="200" font-family="monospace" font-size="18" font-weight="bold" fill="#f59e0b">2.4K</text>
  <text x="455" y="218" font-family="monospace" font-size="8" fill="#64748b">online now</text>
  <rect x="420" y="300" width="110" height="65" rx="12" fill="#1e1b4b" stroke="#22d3ee" stroke-width="1.5"/>
  <text x="435" y="322" font-family="monospace" font-size="9" fill="#22d3ee">Certificate</text>
  <text x="435" y="340" font-family="monospace" font-size="11" fill="white">Earned!</text>
  <circle cx="80" cy="320" r="3" fill="#6366f1" opacity="0.6"/>
  <circle cx="520" cy="120" r="4" fill="#f59e0b" opacity="0.5"/>
  <circle cx="50" cy="130" r="2" fill="#22d3ee" opacity="0.7"/>
  <circle cx="550" cy="350" r="3" fill="#a78bfa" opacity="0.6"/>
</svg>
